<?xml version="1.0" standalone="no"?>
<!DOCTYPE svg PUBLIC "-//W3C//DTD SVG 20010904//EN"
 "http://www.w3.org/TR/2001/REC-SVG-20010904/DTD/svg10.dtd">
<svg version="1.0" xmlns="http://www.w3.org/2000/svg"
 width="610.000000pt" height="600.000000pt" viewBox="0 0 610.000000 600.000000"
 preserveAspectRatio="xMidYMid meet">
<metadata>
Created by potrace 1.16, written by Peter Selinger 2001-2019
</metadata>
<g transform="translate(0.000000,600.000000) scale(0.100000,-0.100000)"
fill="#000000" stroke="none">
<path d="M2695 5423 c-99 -65 -166 -120 -277 -231 l-98 -96 0 -907 0 -907 -22
-5 c-13 -3 -242 -51 -510 -108 l-486 -102 -30 -77 c-31 -77 -85 -287 -97 -369
l-6 -44 33 6 c31 5 1048 221 1096 232 l22 5 0 -295 c0 -162 -3 -295 -7 -295
-6 0 -959 -202 -1158 -246 l-71 -15 -26 -72 c-56 -149 -113 -395 -96 -412 5
-5 1240 256 1324 280 60 17 157 85 200 141 56 71 252 371 268 409 13 31 16 86
16 316 0 153 3 280 8 283 6 4 436 96 448 96 2 0 4 -210 4 -466 l0 -466 23 5
c17 5 1302 281 1409 304 23 4 31 16 52 72 36 94 74 230 86 309 6 37 13 77 16
90 3 18 0 22 -18 22 -13 -1 -266 -54 -563 -119 -297 -65 -543 -116 -547 -114
-7 4 -12 463 -5 463 22 0 1002 211 1007 217 14 15 69 185 94 293 30 132 38
190 23 190 -12 0 -315 -64 -791 -166 -164 -35 -307 -64 -317 -64 -18 0 -19 22
-19 831 l0 831 -37 -23 c-104 -62 -208 -144 -305 -241 l-108 -108 -2 -697 -3
-697 -220 -48 c-121 -26 -223 -47 -227 -48 -5 0 -9 470 -10 1044 l-3 1044 -70
-45z"/>
<path d="M4130 1809 c-355 -76 -673 -144 -707 -150 l-61 -12 -26 -61 c-45
-107 -81 -245 -100 -387 l-7 -45 718 153 c395 84 723 155 730 158 31 11 119
299 136 443 5 38 3 42 -16 41 -12 -1 -312 -63 -667 -140z"/>
</g>
</svg>
